<svg width="50" height="50" viewBox="0 0 50 50" fill="none" xmlns="http://www.w3.org/2000/svg">
<rect x="0.5" y="0.5" width="49" height="49" rx="24.5" stroke="#031923"/>
<path d="M32.5783 13.0001C32.3283 12.9979 32.1051 13.1563 32.027 13.3952L29.1855 22.1429H21.1007L18.2592 13.3952C18.1833 13.1653 17.9713 13.0068 17.728 13.0001C17.4847 12.9956 17.2659 13.143 17.1788 13.3706L13.7548 22.509C13.7525 22.509 13.7525 22.5112 13.7503 22.5135L12.036 27.0849C11.9467 27.3259 12.0271 27.596 12.2369 27.7478L24.8038 36.8862L24.806 36.8906C24.8083 36.8906 24.8083 36.8906 24.8083 36.8929C24.815 36.8973 24.8239 36.9018 24.8306 36.9062C24.8395 36.9107 24.8462 36.9174 24.8552 36.9219C24.8574 36.9219 24.8574 36.9241 24.8596 36.9241C24.8596 36.9241 24.8619 36.9263 24.8641 36.9263C24.8663 36.9286 24.8685 36.9308 24.873 36.9308C24.8752 36.933 24.8797 36.9353 24.8819 36.9375C24.8931 36.942 24.9065 36.9487 24.9199 36.9531C24.9199 36.9531 24.9199 36.9531 24.9199 36.9554C24.9333 36.9598 24.9467 36.9643 24.9578 36.9688C24.9601 36.9688 24.9601 36.9688 24.9623 36.971C24.9712 36.9732 24.9802 36.9754 24.9913 36.9799C24.9958 36.9799 25.0002 36.9821 25.0069 36.9821C25.0069 36.9844 25.0069 36.9844 25.0069 36.9821C25.0181 36.9866 25.0293 36.9888 25.0404 36.9911C25.056 36.9933 25.0694 36.9955 25.0851 36.9978C25.1074 36.9978 25.1319 37 25.1543 37C25.1766 36.9978 25.1967 36.9978 25.2168 36.9933C25.2257 36.9933 25.2324 36.9933 25.2413 36.9911C25.2413 36.9911 25.2435 36.9911 25.2458 36.9911C25.2502 36.9888 25.2525 36.9888 25.2569 36.9888C25.2592 36.9888 25.2614 36.9866 25.2659 36.9866C25.2703 36.9844 25.277 36.9844 25.2815 36.9821C25.2904 36.9799 25.2971 36.9777 25.3038 36.9754C25.3083 36.9754 25.3105 36.9754 25.3127 36.9732C25.315 36.9732 25.3172 36.9732 25.3194 36.9732C25.3284 36.9688 25.3395 36.9643 25.3485 36.9621C25.3596 36.9576 25.3685 36.9531 25.3775 36.9487C25.3797 36.9487 25.3797 36.9487 25.3819 36.9464C25.3842 36.9464 25.3864 36.9464 25.3886 36.9442C25.3931 36.942 25.3976 36.9397 25.402 36.9375C25.4154 36.9308 25.4266 36.9241 25.4377 36.9174C25.4422 36.9152 25.4444 36.9129 25.4467 36.9107C25.4489 36.9107 25.4511 36.9085 25.4534 36.9085C25.4623 36.9018 25.4712 36.8973 25.4802 36.8906L25.4846 36.8839L38.0515 27.7478C38.2591 27.596 38.3395 27.3259 38.2502 27.0849L36.5404 22.5291C36.5381 22.5246 36.5359 22.5179 36.5359 22.5135L33.1074 13.3706C33.0225 13.1497 32.8149 13.0023 32.5783 13.0001ZM15.4668 23.2858H20.2704L23.6163 33.5804L15.4668 23.2858ZM30.0159 23.2858H34.8194L26.6699 33.5804L30.0159 23.2858ZM14.4646 23.8617L22.1074 33.5156L13.2592 27.0804L14.4646 23.8617ZM35.8216 23.8617L37.027 27.0804L28.1788 33.5156L35.8216 23.8617Z" fill="black"/>
</svg>
